<svg width="49" height="47" viewBox="0 0 49 47" fill="none" xmlns="http://www.w3.org/2000/svg">
<g id="Buttons">
<g clip-path="url(#clip0_390_5278)">
<rect width="49" height="47" rx="14" fill="#EFEFEF"/>
<g id="Group 3">
<path id="Vector" d="M26 14.8369L25.2464 15.0944L-5.60462 15.0273L-6 14.8369L-2.13569 8.16916C-2.06975 8.05541 -1.94825 7.98535 -1.81675 7.98535H21.9683C22.102 7.98535 22.2253 8.05779 22.2903 8.17466L26 14.8369Z" fill="#FF9901"/>
<path id="Vector_2" d="M25.6314 38.1167H-5.63138C-5.835 38.1167 -6 37.9517 -6 37.7481V14.8369H26V37.7481C26 37.9517 25.8349 38.1167 25.6314 38.1167Z" fill="#FFC473"/>
<path id="Vector_3" d="M21.3 14.8369V18.7204C21.3 28.6052 13.2868 36.6184 3.402 36.6184H-6V37.748C-6 37.9517 -5.83494 38.1167 -5.63138 38.1167H25.6313C25.8349 38.1167 25.9999 37.9516 25.9999 37.748V14.8369H21.3Z" fill="#FFB74F"/>
<path id="Vector_4" d="M21.9692 7.98535H17.4844L21.2994 14.8369H26.001L22.2913 8.17466C22.2262 8.05779 22.103 7.98535 21.9692 7.98535Z" fill="#FF8900"/>
<path id="Vector_5" d="M13.1543 14.8369H6.84766L7.63028 7.98535H12.4023L13.1543 14.8369Z" fill="#E67500"/>
<path id="Vector_6" d="M12.683 21.1435H7.31891C7.05866 21.1435 6.84766 20.9325 6.84766 20.6722V14.8369H13.1542V20.6722C13.1543 20.9325 12.9433 21.1435 12.683 21.1435Z" fill="#FFB74F"/>
<path id="Vector_7" d="M3.63034 34.9511H-2.56303C-2.78059 34.9511 -2.95703 34.7747 -2.95703 34.5571V29.2153C-2.95703 28.9977 -2.78066 28.8213 -2.56303 28.8213H3.63034C3.84791 28.8213 4.02434 28.9977 4.02434 29.2153V34.5571C4.02428 34.7747 3.84791 34.9511 3.63034 34.9511Z" fill="#FFDBA9"/>
<g id="Group">
<path id="Vector_8" d="M3.61481 18.3356H-2.95719C-3.23544 18.3356 -3.46094 18.1101 -3.46094 17.8319C-3.46094 17.5537 -3.23544 17.3281 -2.95719 17.3281H3.61481C3.89306 17.3281 4.11856 17.5537 4.11856 17.8319C4.11856 18.1101 3.89306 18.3356 3.61481 18.3356Z" fill="#E67500"/>
<path id="Vector_9" d="M1.42 20.5016H-2.95719C-3.23544 20.5016 -3.46094 20.2761 -3.46094 19.9979C-3.46094 19.7197 -3.23544 19.4941 -2.95719 19.4941H1.42C1.69825 19.4941 1.92375 19.7197 1.92375 19.9979C1.92375 20.2761 1.69825 20.5016 1.42 20.5016Z" fill="#E67500"/>
</g>
<path id="Vector_10" d="M23.1542 30.2574L20.4431 27.5462C20.276 27.3791 20.005 27.3791 19.8379 27.5462L17.1267 30.2574C16.9478 30.4364 17.0745 30.7423 17.3276 30.7423H18.6877C18.8224 30.7423 18.9315 30.8515 18.9315 30.9861V34.616C18.9315 34.8012 19.0817 34.9513 19.2669 34.9513H21.0142C21.1994 34.9513 21.3495 34.8012 21.3495 34.616V30.9861C21.3495 30.8514 21.4587 30.7423 21.5933 30.7423H22.9534C23.2064 30.7423 23.3332 30.4364 23.1542 30.2574Z" fill="#57555C"/>
</g>
</g>
</g>
<defs>
<clipPath id="clip0_390_5278">
<rect width="49" height="47" rx="14" fill="white"/>
</clipPath>
</defs>
</svg>
