<svg width="39" height="40" viewBox="0 0 39 40" fill="none" xmlns="http://www.w3.org/2000/svg">
<g id="Group 33">
<g id="Group">
<g id="Group_2">
<path id="Vector" d="M36.5308 20.5181C36.3698 20.1888 36.3698 19.8112 36.5308 19.482L38.0226 16.43C38.8532 14.7308 38.1951 12.7054 36.5243 11.8189L33.5236 10.2267C33.1999 10.055 32.9779 9.74941 32.9145 9.38855L32.3277 6.04258C32.0009 4.17963 30.2776 2.92777 28.4052 3.19269L25.0417 3.66846C24.6787 3.71971 24.3197 3.603 24.0564 3.34823L21.6149 0.986385C20.2555 -0.328756 18.1258 -0.328834 16.7664 0.986385L14.3249 3.34847C14.0615 3.60331 13.7025 3.71979 13.3395 3.6687L9.97606 3.19292C8.10303 2.92785 6.3804 4.17986 6.0536 6.04281L5.46673 9.38863C5.40338 9.74957 5.18143 10.0551 4.85776 10.2269L1.85701 11.8191C0.186249 12.7055 -0.471869 14.731 0.358746 16.4303L1.85053 19.4821C2.01146 19.8114 2.01146 20.1891 1.85053 20.5183L0.358668 23.5701C-0.471947 25.2694 0.18617 27.2948 1.85693 28.1812L4.85768 29.7734C5.18143 29.9451 5.40338 30.2507 5.46673 30.6116L6.0536 33.9576C6.3511 35.6535 7.8053 36.8428 9.47661 36.8427C9.64122 36.8427 9.80825 36.8311 9.97614 36.8074L13.3396 36.3316C13.7023 36.2801 14.0616 36.3971 14.325 36.6518L16.7664 39.0137C17.4463 39.6713 18.3183 40.0001 19.1906 40C20.0627 39.9999 20.9353 39.6712 21.6148 39.0137L24.0564 36.6518C24.3198 36.3971 24.6789 36.2807 25.0417 36.3316L28.4052 36.8074C30.2785 37.0724 32.0009 35.8204 32.3277 33.9575L32.9146 30.6117C32.978 30.2507 33.1999 29.9452 33.5236 29.7734L36.5243 28.1812C38.1951 27.2948 38.8532 25.2693 38.0226 23.57L36.5308 20.5181ZM14.5766 9.61847C16.9087 9.61847 18.8061 11.5159 18.8061 13.848C18.8061 16.1802 16.9087 18.0776 14.5766 18.0776C12.2444 18.0776 10.347 16.1802 10.347 13.848C10.347 11.5159 12.2444 9.61847 14.5766 9.61847ZM12.3935 28.4284C12.1682 28.6536 11.873 28.7663 11.5778 28.7663C11.2827 28.7663 10.9874 28.6537 10.7622 28.4284C10.3118 27.9779 10.3118 27.2476 10.7622 26.7971L25.9877 11.5716C26.4381 11.1211 27.1686 11.1211 27.6191 11.5716C28.0695 12.022 28.0695 12.7524 27.6191 13.2029L12.3935 28.4284ZM23.8046 30.3817C21.4724 30.3817 19.575 28.4843 19.575 26.1521C19.575 23.8199 21.4724 21.9225 23.8046 21.9225C26.1367 21.9225 28.0341 23.8199 28.0341 26.1521C28.0341 28.4843 26.1367 30.3817 23.8046 30.3817Z" fill="#222222"/>
</g>
</g>
<g id="Group_3">
<g id="Group_4">
<path id="Vector_2" d="M23.8054 24.2295C22.7453 24.2295 21.8828 25.0919 21.8828 26.152C21.8828 27.212 22.7452 28.0744 23.8054 28.0744C24.8654 28.0744 25.7278 27.212 25.7278 26.152C25.7278 25.0919 24.8654 24.2295 23.8054 24.2295Z" fill="#222222"/>
</g>
</g>
<g id="Group_5">
<g id="Group_6">
<path id="Vector_3" d="M14.5748 11.9258C13.5148 11.9258 12.6523 12.7882 12.6523 13.8483C12.6523 14.9083 13.5148 15.7708 14.5748 15.7708C15.6349 15.7708 16.4974 14.9084 16.4974 13.8483C16.4973 12.7883 15.6349 11.9258 14.5748 11.9258Z" fill="#222222"/>
</g>
</g>
</g>
</svg>
