<svg width="20" height="23" viewBox="0 0 20 23" fill="none" xmlns="http://www.w3.org/2000/svg">
<path id="coolicon" d="M6.38016 7.26019C5.18779 8.42533 4.75084 10.5502 5.78041 12.2549C6.74387 13.8502 7.9575 15.2455 9.34433 16.353C10.8267 17.5368 12.6744 17.0341 13.6875 15.6629L13.6987 15.6689C14.9927 16.3582 16.3671 16.8307 17.7778 17.0714V20.4444L17.7766 20.4444L17.7734 20.4444C8.91279 20.4589 2.21275 12.6642 2.22223 2.56014V2.55556H5.15485L5.15505 2.55705C5.36444 4.17916 5.77512 5.75835 6.3746 7.24638L6.38016 7.26019ZM17.7766 23H18.8889C19.5025 23 20 22.4279 20 21.7222V15.9693C20 15.3361 19.5967 14.7983 19.052 14.7054L18.1029 14.5434C16.9025 14.3385 15.7339 13.9366 14.6328 13.35L13.7963 12.9044C13.3115 12.6462 12.7356 12.8212 12.4251 13.3212L12.0464 13.9309C11.7145 14.4653 11.0809 14.6285 10.6118 14.2539C9.44261 13.3202 8.41786 12.142 7.60558 10.7971C7.27979 10.2577 7.42173 9.52887 7.88648 9.14718L8.41641 8.71197C8.85121 8.35489 9.00345 7.69249 8.77885 7.13498L8.39093 6.17209C7.88082 4.9059 7.53136 3.56212 7.35318 2.18179L7.21226 1.09015C7.13141 0.463781 6.66383 0 6.1132 0H1.11112C0.497473 0 1.13625e-05 0.57208 1.13625e-05 1.27778V2.55738C-0.0107882 14.0656 7.67804 23.0165 17.7766 23Z" fill="#222222"/>
</svg>
