<svg width="38" height="40" viewBox="0 0 38 40" fill="none" xmlns="http://www.w3.org/2000/svg">
<g id="Group 35">
<g id="Group">
<g id="Group_2">
<path id="Vector" d="M32.8571 12.8574H20V25.1231L24.7043 20.4188C25.2718 19.8707 26.1762 19.8864 26.7243 20.4538C27.259 21.0075 27.259 21.8851 26.7243 22.4387L19.5813 29.5817C19.0242 30.1403 18.1197 30.1415 17.561 29.5843C17.5602 29.5834 17.5594 29.5826 17.5584 29.5817L10.4157 22.4388C9.8676 21.8713 9.88334 20.967 10.4509 20.4189C11.0045 19.8842 11.8821 19.8842 12.4357 20.4189L17.1428 25.1232V12.8574H4.28571C1.91878 12.8574 0 14.7762 0 17.1431V35.7146C0 38.0815 1.91878 40.0003 4.28571 40.0003H32.8571C35.224 40.0003 37.1428 38.0815 37.1428 35.7146V17.1431C37.1428 14.7762 35.224 12.8574 32.8571 12.8574Z" fill="#222222"/>
</g>
</g>
<g id="Group_3">
<g id="Group_4">
<path id="Vector_2" d="M18.5731 0C17.7841 0 17.1445 0.639592 17.1445 1.4286V12.8571H20.0017V1.4286C20.0017 0.639592 19.3621 0 18.5731 0Z" fill="#222222"/>
</g>
</g>
</g>
</svg>
