<svg width="40" height="40" viewBox="0 0 40 40" fill="none" xmlns="http://www.w3.org/2000/svg">
<g id="Group 32">
<g id="Group">
<g id="Group_2">
<path id="Vector" d="M35.8334 0H25.3334C23.3334 0 21.3334 0.833359 20 2.16664L1.5 20.6666C0.5 21.6666 0 22.8334 0 24.1666C0 25.5 0.5 26.6666 1.5 27.6666L12.5 38.6666C13.3334 39.5 14.5 40 15.8334 40C17.1667 40 18.3334 39.5 19.3334 38.5L37.8334 20C39.1666 18.6666 40 16.6666 40 14.6666V4.16664C40 1.83336 38.1666 0 35.8334 0ZM12.5 23.3334C11.1666 23.3334 10 22.1667 10 20.8334C10 19.5 11.1666 18.3334 12.5 18.3334C13.8334 18.3334 15 19.5 15 20.8334C15 22.1666 13.8334 23.3334 12.5 23.3334ZM18.3334 29.1666C18.3334 29.6666 18 30 17.5 30C17 30 16.6666 29.6666 16.6666 29.1666V15.8334C16.6666 15.3334 17 15 17.5 15C18 15 18.3334 15.3334 18.3334 15.8334V29.1666ZM22.5 26.6666C21.1666 26.6666 20 25.5 20 24.1666C20 22.8333 21.1666 21.6666 22.5 21.6666C23.8334 21.6666 25 22.8333 25 24.1666C25 25.5 23.8334 26.6666 22.5 26.6666ZM30.8334 13.3334C28.5 13.3334 26.6667 11.5 26.6667 9.16672C26.6666 6.83336 28.5 5 30.8334 5C33.1667 5 35 6.83336 35 9.16664C35 11.5 33.1666 13.3334 30.8334 13.3334Z" fill="#222222"/>
</g>
</g>
</g>
</svg>
