<svg width="29" height="25" viewBox="0 0 29 25" fill="none" xmlns="http://www.w3.org/2000/svg">
<path id="Shape 9" d="M26.7109 2.32037C25.9847 1.57167 25.1214 0.980971 24.1717 0.583024C23.222 0.185077 22.2051 -0.012099 21.1808 0.00309092C19.7798 -0.0389756 18.398 0.34914 17.2092 1.11864C16.0205 1.88814 15.0777 3.00468 14.4996 4.32788C13.9214 3.00468 12.9787 1.88814 11.7899 1.11864C10.6011 0.34914 9.21939 -0.0389756 7.81835 0.00309092C6.79406 -0.012099 5.77718 0.185077 4.82749 0.583024C3.8778 0.980971 3.01448 1.57167 2.28825 2.32037C1.5297 3.14614 0.93713 4.11995 0.545023 5.18519C0.152916 6.25042 -0.0309088 7.38581 0.00423615 8.52533C0.00423615 11.5145 1.83423 14.8026 5.45327 18.3001C7.77296 20.501 10.3057 22.4478 13.0112 24.1096L13.9349 24.6623L14.5005 25L15.066 24.6614C15.066 24.6614 15.7021 24.2812 15.9888 24.1087C18.6944 22.4473 21.2271 20.5008 23.5467 18.3001C27.1623 14.8035 28.9958 11.5145 28.9958 8.52533C29.0308 7.38575 28.8468 6.25034 28.4545 5.1851C28.0623 4.11987 27.4696 3.14609 26.7109 2.32037ZM22 16.5888C19.8052 18.6711 17.4089 20.5128 14.849 22.0849L14.5005 22.2953L14.1519 22.0849C11.5921 20.5128 9.19571 18.671 7.00093 16.5888C3.90736 13.5961 2.27168 10.8092 2.27168 8.52985C2.27168 4.8932 4.55309 2.35377 7.82095 2.35377C8.79276 2.3107 9.75457 2.57198 10.581 3.10354C11.4075 3.6351 12.0603 4.41231 12.4543 5.3339C12.9483 6.36686 13.2594 7.48328 13.3728 8.6301H13.4164H15.6333C15.7457 7.50606 16.0468 6.41102 16.523 5.3944C16.9176 4.46287 17.5727 3.67536 18.4036 3.13365C19.2346 2.59193 20.2032 2.3209 21.1843 2.35558C24.4513 2.35558 26.7336 4.89591 26.7336 8.53166C26.7301 10.8056 25.0944 13.5925 22 16.5843V16.5888Z" fill="black"/>
</svg>
