<svg width="40" height="40" viewBox="0 0 40 40" fill="none" xmlns="http://www.w3.org/2000/svg">
<g id="Group">
<g id="Group_2">
<g id="Group_3">
<path id="Subtract" fill-rule="evenodd" clip-rule="evenodd" d="M18.5724 38.5713C18.5724 39.361 17.9334 40 17.1437 40H2.85738C2.0677 40 1.42869 39.361 1.42869 38.5713V24.2849C1.42869 23.4953 2.0677 22.8563 2.85738 22.8563H17.1439C17.9336 22.8563 18.5726 23.4953 18.5726 24.2849V38.5713H18.5724ZM38.5734 38.5713C38.5734 39.361 37.9344 40 37.1447 40H22.8584C22.0687 40 21.4297 39.361 21.4297 38.5713V24.2849C21.4297 23.4953 22.0687 22.8563 22.8584 22.8563H37.1449C37.9345 22.8563 38.5736 23.4953 38.5736 24.2849V38.5713H38.5734ZM40.0021 18.5703C40.0021 19.36 39.3631 19.999 38.5734 19.999H15.7152H1.42869C0.639006 19.999 0 19.36 0 18.5703V9.99845C0 9.20877 0.639006 8.56976 1.42869 8.56976H12.0014C11.0072 8.11733 10.1934 7.68003 9.82765 7.31412C8.15627 5.64273 8.15627 2.92492 9.82765 1.25354C11.499 -0.417845 14.2169 -0.417845 15.8882 1.25354C16.7182 2.08353 18.6713 5.13244 20.0011 7.27072C21.3311 5.13244 23.2841 2.08353 24.114 1.25354C25.7854 -0.417845 28.5032 -0.417845 30.1746 1.25354C31.846 2.92492 31.846 5.64273 30.1746 7.31412C29.8087 7.68003 28.995 8.11733 28.0008 8.56976H38.5736C39.3632 8.56976 40.0022 9.20877 40.0022 9.99845V18.5703H40.0021ZM28.1558 3.27365C27.8768 2.99467 27.5112 2.85645 27.1457 2.85645C26.7802 2.85645 26.4146 2.99453 26.1355 3.27365C25.7085 3.70064 24.5394 5.45011 23.3242 7.35735C25.6905 6.50351 27.7204 5.66922 28.1683 5.28135C28.7124 4.73717 28.7124 3.83029 28.1558 3.27365ZM11.8472 3.27365C12.1263 2.99453 12.4918 2.85645 12.8573 2.85645C13.2228 2.85645 13.5885 2.99453 13.8673 3.27352C14.2943 3.70051 15.4634 5.44997 16.6786 7.35721C14.3139 6.50485 12.2866 5.67324 11.8472 5.2938C11.2905 4.73717 11.2905 3.83029 11.8472 3.27365Z" fill="#222222"/>
</g>
</g>
</g>
</svg>
