<svg width="28" height="26" viewBox="0 0 28 26" fill="none" xmlns="http://www.w3.org/2000/svg">
<g id="Group 205">
<path id="Vector" d="M22.171 18.916C20.2458 18.916 18.6797 20.5051 18.6797 22.4583C18.6797 24.4114 20.2459 26.0005 22.171 26.0005C24.096 26.0005 25.6622 24.4114 25.6622 22.4583C25.6622 20.5051 24.096 18.916 22.171 18.916ZM22.171 23.8752C21.4008 23.8752 20.7745 23.2397 20.7745 22.4583C20.7745 21.6768 21.4008 21.0414 22.171 21.0414C22.9411 21.0414 23.5675 21.6768 23.5675 22.4583C23.5675 23.2397 22.9411 23.8752 22.171 23.8752Z" fill="black"/>
<path id="Vector_2" d="M27.7774 5.22514C27.5791 4.96763 27.275 4.81743 26.9528 4.81743H6.4652L5.52254 0.815759C5.40978 0.337579 4.98835 4.8531e-09 4.50376 4.8531e-09H1.04738C0.468894 -5.54814e-05 0 0.475684 0 1.06262C0 1.64955 0.468894 2.12529 1.04738 2.12529H3.67705L7.08104 16.5763C7.1938 17.0549 7.61523 17.3921 8.09982 17.3921H24.4042C24.8856 17.3921 25.3053 17.0591 25.4208 16.5851L27.9695 6.13545C28.0466 5.81812 27.9757 5.48265 27.7774 5.22514ZM23.5847 15.2668H8.92653L6.96581 6.94277H25.6145L23.5847 15.2668Z" fill="black"/>
<path id="Vector_3" d="M9.49518 18.916C7.57006 18.916 6.00391 20.5051 6.00391 22.4583C6.00391 24.4114 7.57011 26.0005 9.49518 26.0005C11.4202 26.0005 12.9864 24.4114 12.9864 22.4583C12.9864 20.5051 11.4202 18.916 9.49518 18.916ZM9.49518 23.8752C8.72501 23.8752 8.09867 23.2397 8.09867 22.4583C8.09867 21.6768 8.72501 21.0414 9.49518 21.0414C10.2653 21.0414 10.8917 21.6768 10.8917 22.4583C10.8917 23.2397 10.2653 23.8752 9.49518 23.8752Z" fill="black"/>
</g>
</svg>
