<svg width="40" height="35" viewBox="0 0 40 35" fill="none" xmlns="http://www.w3.org/2000/svg">
<path id="Icon awesome-th-list" d="M11.6675 14.375V20.625C11.6675 21.1223 11.47 21.5992 11.1183 21.9508C10.7667 22.3025 10.2898 22.5 9.7925 22.5H1.875C1.37772 22.5 0.900805 22.3025 0.549175 21.9508C0.197544 21.5992 0 21.1223 0 20.625L0 14.375C0 13.8777 0.197544 13.4008 0.549175 13.0492C0.900805 12.6975 1.37772 12.5 1.875 12.5H9.7925C10.2898 12.5 10.7667 12.6975 11.1183 13.0492C11.47 13.4008 11.6675 13.8777 11.6675 14.375ZM0 26.875V33.125C0 33.6223 0.197544 34.0992 0.549175 34.4508C0.900805 34.8025 1.37772 35 1.875 35H9.7925C10.2898 35 10.7667 34.8025 11.1183 34.4508C11.47 34.0992 11.6675 33.6223 11.6675 33.125V26.875C11.6675 26.3777 11.47 25.9008 11.1183 25.5492C10.7667 25.1975 10.2898 25 9.7925 25H1.875C1.37772 25 0.900805 25.1975 0.549175 25.5492C0.197544 25.9008 0 26.3777 0 26.875H0ZM9.7925 0H1.875C1.37772 0 0.900805 0.197544 0.549175 0.549175C0.197544 0.900805 0 1.37772 0 1.875L0 8.125C0 8.62228 0.197544 9.09919 0.549175 9.45083C0.900805 9.80246 1.37772 10 1.875 10H9.7925C10.2898 10 10.7667 9.80246 11.1183 9.45083C11.47 9.09919 11.6675 8.62228 11.6675 8.125V1.875C11.6675 1.37772 11.47 0.900805 11.1183 0.549175C10.7667 0.197544 10.2898 0 9.7925 0ZM16.0425 35H38.125C38.6223 35 39.0992 34.8025 39.4508 34.4508C39.8025 34.0992 40 33.6223 40 33.125V26.875C40 26.3777 39.8025 25.9008 39.4508 25.5492C39.0992 25.1975 38.6223 25 38.125 25H16.0425C15.5452 25 15.0683 25.1975 14.7167 25.5492C14.365 25.9008 14.1675 26.3777 14.1675 26.875V33.125C14.1675 33.6223 14.365 34.0992 14.7167 34.4508C15.0683 34.8025 15.5452 35 16.0425 35ZM14.1675 1.875V8.125C14.1675 8.62228 14.365 9.09919 14.7167 9.45083C15.0683 9.80246 15.5452 10 16.0425 10H38.125C38.6223 10 39.0992 9.80246 39.4508 9.45083C39.8025 9.09919 40 8.62228 40 8.125V1.875C40 1.37772 39.8025 0.900805 39.4508 0.549175C39.0992 0.197544 38.6223 0 38.125 0H16.0425C15.5452 0 15.0683 0.197544 14.7167 0.549175C14.365 0.900805 14.1675 1.37772 14.1675 1.875ZM16.0425 22.5H38.125C38.6223 22.5 39.0992 22.3025 39.4508 21.9508C39.8025 21.5992 40 21.1223 40 20.625V14.375C40 13.8777 39.8025 13.4008 39.4508 13.0492C39.0992 12.6975 38.6223 12.5 38.125 12.5H16.0425C15.5452 12.5 15.0683 12.6975 14.7167 13.0492C14.365 13.4008 14.1675 13.8777 14.1675 14.375V20.625C14.1675 21.1223 14.365 21.5992 14.7167 21.9508C15.0683 22.3025 15.5452 22.5 16.0425 22.5Z" fill="#222222"/>
</svg>
