<svg width="16" height="14" viewBox="0 0 16 14" fill="none" xmlns="http://www.w3.org/2000/svg">
<path id="Vector" d="M6.15385 12.1212C6.15385 12.7842 5.59631 13.3333 4.92308 13.3333C4.24985 13.3333 3.69231 12.7842 3.69231 12.1212C3.69231 11.4582 4.24985 10.9091 4.92308 10.9091C5.59631 10.9091 6.15385 11.4582 6.15385 12.1212ZM14.7692 12.1212C14.7692 12.7842 14.2117 13.3333 13.5385 13.3333C12.8652 13.3333 12.3077 12.7842 12.3077 12.1212C12.3077 11.4582 12.8652 10.9091 13.5385 10.9091C14.2117 10.9091 14.7692 11.4582 14.7692 12.1212ZM16 1.81818V6.66667C16 6.9697 15.7594 7.23515 15.4517 7.27273L6.08554 8.35055C5.72609 8.39191 5.53846 8.72908 5.53846 9.09091C5.53846 9.39103 5.66295 9.69697 5.96307 9.69697H14.1538C14.4905 9.69697 14.7692 9.97152 14.7692 10.303C14.7692 10.6345 14.4905 10.9091 14.1538 10.9091H4.30769C3.97108 10.9091 3.69231 10.6345 3.69231 10.303C3.69231 9.37772 4.17057 8.51006 3.97313 7.60606L2.99511 3.12818C2.75079 2.00957 1.76037 1.21212 0.615385 1.21212C0.278769 1.21212 0 0.937576 0 0.606061C0 0.274545 0.278769 0 0.615385 0H3.07692C3.99804 0 4.49544 1.21212 5.41655 1.21212H15.3846C15.7212 1.21212 16 1.48667 16 1.81818Z" fill="white"/>
</svg>
