<svg width="32" height="29" viewBox="0 0 32 29" fill="none" xmlns="http://www.w3.org/2000/svg">
<path id="Vector" d="M16 1C7.71582 1 1 7.04424 1 14.5C1 21.9558 7.71582 28 16 28C24.2842 28 31 21.9558 31 14.5C30.9907 7.04775 24.2803 1.00835 16 1ZM28.9729 19.2294L24.707 19.8919C25.1953 18.2802 25.459 16.6201 25.4919 14.95H29.9875C29.9312 16.4191 29.5876 17.8678 28.9729 19.2294ZM2.01245 14.95H6.50806C6.54102 16.6201 6.80469 18.2802 7.29297 19.8919L3.0271 19.2294C2.41235 17.8678 2.06885 16.4191 2.01245 14.95ZM3.0271 9.77061L7.29297 9.10813C6.80469 10.7198 6.54102 12.3799 6.50806 14.05H2.01245C2.06885 12.5809 2.41235 11.1323 3.0271 9.77061ZM16.5 8.22527C18.2966 8.24592 20.0889 8.39314 21.8601 8.66582L23.625 8.93982C24.1672 10.6005 24.459 12.3192 24.4924 14.05H16.5V8.22527ZM22.0305 7.77878C20.2031 7.49775 18.3538 7.34592 16.5 7.32527V1.92527C19.3665 2.17312 21.8564 4.53518 23.2676 7.9728L22.0305 7.77878ZM15.5 7.32527C13.6462 7.34592 11.7974 7.49775 9.96997 7.77878L8.73242 7.97148C10.1436 4.53298 12.6335 2.17004 15.5 1.92329V7.32527ZM10.1404 8.66582C11.9114 8.39314 13.7034 8.24592 15.5 8.22527V14.05H7.50757C7.54102 12.3192 7.83276 10.6005 8.375 8.93982L10.1404 8.66582ZM7.50757 14.95H15.5V20.7747C13.7034 20.7541 11.9111 20.6069 10.1399 20.3342L8.375 20.0602C7.83276 18.3995 7.54102 16.6808 7.50757 14.95ZM9.96948 21.2212C11.7969 21.5027 13.646 21.6552 15.5 21.6771V27.0772C12.6335 26.8291 10.1436 24.467 8.73242 21.0294L9.96948 21.2212ZM16.5 21.6771C18.3538 21.6552 20.2026 21.5027 22.03 21.2212L23.2676 21.0285C21.8564 24.467 19.3665 26.83 16.5 27.0767V21.6771ZM21.8596 20.3342C20.0886 20.6069 18.2966 20.7541 16.5 20.7747V14.95H24.4924C24.459 16.6808 24.1672 18.3995 23.625 20.0602L21.8596 20.3342ZM25.4919 14.05C25.459 12.3799 25.1953 10.7198 24.707 9.10813L28.9729 9.77061C29.5876 11.1323 29.9312 12.5809 29.9875 14.05H25.4919ZM28.467 8.77876L24.3779 8.14375C23.6428 5.98538 22.2676 4.04827 20.3999 2.54116C23.8923 3.59014 26.7886 5.82937 28.467 8.77876ZM11.6001 2.54116C9.73242 4.04827 8.35718 5.98538 7.62207 8.14375L3.53296 8.77876C5.21143 5.82937 8.10767 3.59014 11.6001 2.54116ZM3.53296 20.2212L7.62207 20.8563C8.35718 23.0146 9.73242 24.9517 11.6001 26.4588C8.10767 25.4099 5.21143 23.1706 3.53296 20.2212ZM20.3999 26.4588C22.2676 24.9517 23.6428 23.0146 24.3779 20.8563L28.467 20.2212C26.7886 23.1706 23.8923 25.4099 20.3999 26.4588Z" fill="black" stroke="black"/>
</svg>
