<svg width="40" height="37" viewBox="0 0 40 37" fill="none" xmlns="http://www.w3.org/2000/svg">
<g id="Group">
<g id="Group_2">
<path id="Vector" d="M28.1105 9.66993H31.617L26.4189 0.751842C26.0001 0.0291977 25.0721 -0.217158 24.3495 0.209859C23.6269 0.628664 23.3805 1.5566 23.8075 2.27925L28.1105 9.66993Z" fill="#222222"/>
<path id="Vector_2" d="M16.2118 2.27951C16.6306 1.55686 16.3925 0.62892 15.6698 0.210115C14.9472 -0.20869 14.0193 0.0294543 13.6005 0.752099L8.40234 9.6784H11.9088L16.2118 2.27951Z" fill="#222222"/>
<path id="Vector_3" d="M37.4215 12.4043H2.57031C1.14966 12.4043 0 13.554 0 14.9746V17.8241C0 19.2448 1.14966 20.3944 2.57031 20.3944H3.37508L5.85506 33.8373C6.16711 35.4222 7.6124 36.6786 9.11517 36.6786H10.1006H16.5715C17.2285 36.6786 18.0825 36.6786 18.953 36.6786H19.7413H20.5297C21.4001 36.6786 22.2542 36.6786 22.9111 36.6786H29.3821H30.3675C31.8703 36.6786 33.3155 35.4222 33.6276 33.8373L36.124 20.3862H37.4297C38.8503 20.3862 40 19.2366 40 17.8159V14.9664C39.9918 13.554 38.8421 12.4043 37.4215 12.4043ZM14.1901 25.8389V31.6365C14.1901 32.4659 13.5167 33.09 12.7366 33.09C11.9072 33.09 11.2831 32.4166 11.2831 31.6365V29.2058V23.5067C11.2831 22.6773 11.9565 22.0532 12.7366 22.0532C13.566 22.0532 14.1901 22.7266 14.1901 23.5067V25.8389ZM18.8544 25.8389V31.6365C18.8544 32.4659 18.1811 33.09 17.4009 33.09C16.5715 33.09 15.9474 32.4166 15.9474 31.6365V29.2058V23.5067C15.9474 22.6773 16.6208 22.0532 17.4009 22.0532C18.1811 22.0532 18.8544 22.7266 18.8544 23.5067V25.8389ZM23.5434 29.2058V31.6365C23.5434 32.4166 22.9193 33.09 22.0899 33.09C21.3098 33.09 20.6364 32.4659 20.6364 31.6365V25.8389V23.5067C20.6364 22.7266 21.3098 22.0532 22.0899 22.0532C22.87 22.0532 23.5434 22.6773 23.5434 23.5067V29.2058ZM28.2078 29.2058V31.6365C28.2078 32.4166 27.5837 33.09 26.7543 33.09C25.9741 33.09 25.3008 32.4659 25.3008 31.6365V25.8389V23.5067C25.3008 22.7266 25.9249 22.0532 26.7543 22.0532C27.5344 22.0532 28.2078 22.6773 28.2078 23.5067V29.2058Z" fill="#222222"/>
</g>
</g>
</svg>
