<svg width="40" height="28" viewBox="0 0 40 28" fill="none" xmlns="http://www.w3.org/2000/svg">
<g id="Group 34">
<g id="Group">
<path id="Vector" d="M36.4062 0H3.59375C1.61219 0 0 1.61219 0 3.59375V23.9062C0 25.8878 1.61219 27.5 3.59375 27.5H36.4062C38.3878 27.5 40 25.8878 40 23.9062V3.59375C40 1.61219 38.3878 0 36.4062 0ZM12.5 10.9375C12.5 12.4884 11.2384 13.75 9.6875 13.75H7.8125C6.26164 13.75 5 12.4884 5 10.9375V9.0625C5 7.51164 6.26164 6.25 7.8125 6.25H9.6875C11.2384 6.25 12.5 7.51164 12.5 9.0625V10.9375ZM28.5702 17.3211C28.2993 17.3211 28.0265 17.2334 27.7972 17.0527C27.2551 16.6253 27.162 15.8394 27.5894 15.2972C27.9398 14.8528 28.125 14.3177 28.125 13.75C28.125 13.1823 27.9398 12.6472 27.5895 12.2027C27.162 11.6606 27.2552 10.8746 27.7973 10.4472C28.3394 10.0199 29.1254 10.1128 29.5528 10.655C30.2442 11.5322 30.625 12.6313 30.625 13.75C30.625 14.8687 30.2442 15.9678 29.5527 16.8449C29.3061 17.1578 28.94 17.3211 28.5702 17.3211ZM32.6045 20.0091C32.3577 20.2841 32.0165 20.4242 31.6738 20.4242C31.3764 20.4242 31.078 20.3188 30.8393 20.1045C30.3255 19.6435 30.2827 18.8531 30.7438 18.3394C31.8763 17.0773 32.5 15.4475 32.5 13.75C32.5 12.0525 31.8763 10.4227 30.7438 9.16062C30.2827 8.6468 30.3255 7.85648 30.8393 7.39547C31.3531 6.93445 32.1434 6.97711 32.6045 7.49094C34.1492 9.21234 35 11.4352 35 13.75C35 16.0648 34.1492 18.2877 32.6045 20.0091Z" fill="#222222"/>
</g>
</g>
</svg>
