<svg width="40" height="26" viewBox="0 0 40 26" fill="none" xmlns="http://www.w3.org/2000/svg">
<path id="Union" fill-rule="evenodd" clip-rule="evenodd" d="M36.1938 2.93732C38.2925 2.93732 40 4.64478 40 6.74347C40 8.56232 38.7173 10.0861 37.0093 10.4605C36.6714 13.2486 36.0187 16.6455 34.7583 19.361H5.2417C3.98132 16.6455 3.32855 13.2486 2.99072 10.4605C1.28265 10.0864 0 8.56232 0 6.74347C0 4.64478 1.70746 2.93732 3.80615 2.93732C5.90485 2.93732 7.6123 4.64478 7.6123 6.74347C7.6123 7.75238 7.2168 8.67035 6.57349 9.35211C7.71759 10.632 9.37897 11.4398 11.2265 11.4398C14.2172 11.4398 16.7221 9.32556 17.3282 6.51367C16.6287 5.82306 16.1938 4.8645 16.1938 3.80615C16.1938 1.70746 17.9013 0 20 0C22.0987 0 23.8062 1.70746 23.8062 3.80615C23.8062 4.8645 23.3716 5.82306 22.6718 6.51367C23.2779 9.32556 25.7828 11.4398 28.7735 11.4398C30.621 11.4398 32.2824 10.632 33.4265 9.35211C32.7832 8.67035 32.388 7.75238 32.388 6.74347C32.388 4.64478 34.0952 2.93732 36.1938 2.93732ZM6.06641 24.4033V21.7168H33.9302V24.4033C33.9302 25.0539 33.4028 25.5812 32.7522 25.5812H7.24438C6.59375 25.5812 6.06641 25.0539 6.06641 24.4033Z" fill="#222222"/>
</svg>
