<svg width="40" height="38" viewBox="0 0 40 38" fill="none" xmlns="http://www.w3.org/2000/svg">
<path id="coolicon" d="M31.4286 38C27.9618 38 24.8363 36.0161 23.5096 32.9733C22.1829 29.9305 22.9162 26.4281 25.3677 24.0993C27.8191 21.7704 31.5058 21.0738 34.7087 22.3341C37.9116 23.5945 40 26.5637 40 29.8571C40 32.0168 39.0969 34.0879 37.4895 35.615C35.882 37.1421 33.7019 38 31.4286 38ZM8.57143 38C3.83756 38 0 34.3543 0 29.8571C0 25.36 3.83756 21.7143 8.57143 21.7143C13.3053 21.7143 17.1429 25.36 17.1429 29.8571C17.1429 32.0168 16.2398 34.0879 14.6323 35.615C13.0249 37.1421 10.8447 38 8.57143 38ZM31.4286 16.2857C26.6947 16.2857 22.8571 12.64 22.8571 8.14286C22.8571 3.64568 26.6947 0 31.4286 0C36.1624 0 40 3.64568 40 8.14286C40 12.64 36.1624 16.2857 31.4286 16.2857ZM8.57143 16.2857C3.83756 16.2857 0 12.64 0 8.14286C0 3.64568 3.83756 0 8.57143 0C13.3053 0 17.1429 3.64568 17.1429 8.14286C17.1429 10.3025 16.2398 12.3736 14.6323 13.9007C13.0249 15.4278 10.8447 16.2857 8.57143 16.2857Z" fill="#222222"/>
</svg>
