<svg width="16" height="16" viewBox="0 0 16 16" fill="none" xmlns="http://www.w3.org/2000/svg">
<path id="Icon awesome-search" d="M15.7791 13.8331L12.6641 10.7181C12.5944 10.6485 12.5116 10.5933 12.4205 10.5557C12.3294 10.5181 12.2317 10.4989 12.1331 10.4991H11.6241C12.6423 9.19452 13.1246 7.55065 12.9725 5.90273C12.8204 4.2548 12.0455 2.72694 10.8058 1.63067C9.56602 0.53441 7.95481 -0.0476929 6.30066 0.0030604C4.64652 0.0538137 3.07402 0.733601 1.90381 1.90381C0.733601 3.07402 0.0538137 4.64652 0.0030604 6.30066C-0.0476929 7.95481 0.53441 9.56602 1.63067 10.8058C2.72694 12.0455 4.2548 12.8204 5.90273 12.9725C7.55065 13.1246 9.19452 12.6423 10.4991 11.6241V12.1331C10.4989 12.2317 10.5181 12.3294 10.5557 12.4205C10.5933 12.5116 10.6485 12.5944 10.7181 12.6641L13.8331 15.7791C13.9026 15.8489 13.9851 15.9043 14.0759 15.942C14.1668 15.9798 14.2642 15.9992 14.3626 15.9992C14.4611 15.9992 14.5585 15.9798 14.6494 15.942C14.7402 15.9043 14.8227 15.8489 14.8921 15.7791L15.7761 14.8951C15.9165 14.7541 15.9952 14.5631 15.9952 14.3641C15.9952 14.1651 15.9165 13.9742 15.7761 13.8331H15.7791ZM6.49915 10.5001C5.70802 10.5001 4.93466 10.2656 4.27687 9.82603C3.61907 9.3865 3.10638 8.76179 2.80363 8.03088C2.50088 7.29998 2.42166 6.49571 2.57601 5.71979C2.73035 4.94386 3.11131 4.23113 3.67072 3.67172C4.23013 3.11231 4.94286 2.73135 5.71879 2.57701C6.49471 2.42266 7.29898 2.50188 8.02988 2.80463C8.76079 3.10738 9.3855 3.62007 9.82502 4.27787C10.2646 4.93566 10.4991 5.70902 10.4991 6.50015C10.4991 7.56101 10.0777 8.57843 9.32757 9.32857C8.57743 10.0787 7.56001 10.5001 6.49915 10.5001Z" fill="black" fill-opacity="0.3"/>
</svg>
