<svg width="25" height="25" viewBox="0 0 25 25" fill="none" xmlns="http://www.w3.org/2000/svg">
<path id="Shape 1" d="M21.3381 16.1605C20.0021 14.8191 18.3778 13.8001 16.5887 13.1812C17.8598 12.3082 18.8182 11.0512 19.3239 9.5943C19.8295 8.13737 19.8558 6.55698 19.3989 5.08403C18.942 3.61108 18.0259 2.32298 16.7846 1.4082C15.5433 0.493427 14.0418 0 12.5 0C10.9581 0 9.45672 0.493427 8.21538 1.4082C6.97405 2.32298 6.05792 3.61108 5.60102 5.08403C5.14412 6.55698 5.17042 8.13737 5.67606 9.5943C6.18171 11.0512 7.14016 12.3082 8.41124 13.1812C5.95608 14.0341 3.8272 15.6302 2.31998 17.7481C0.812761 19.8659 0.00193033 22.4004 0 25H1.95333C1.95333 22.2022 3.06449 19.5191 5.04237 17.5408C7.02025 15.5625 9.70283 14.451 12.5 14.451C15.2971 14.451 17.9797 15.5625 19.9576 17.5408C21.9355 19.5191 23.0466 22.2022 23.0466 25H25C25.0044 23.3576 24.683 21.7307 24.0544 20.2134C23.4258 18.696 22.5026 17.3185 21.3381 16.1605ZM12.4995 12.4987C11.4566 12.4987 10.4371 12.1894 9.56991 11.6098C8.70276 11.0303 8.02689 10.2065 7.62779 9.24274C7.22868 8.27899 7.12426 7.21866 7.32773 6.19555C7.53119 5.17244 8.03339 4.23265 8.77085 3.49503C9.5083 2.7574 10.4479 2.25506 11.4708 2.05155C12.4936 1.84804 13.5539 1.95246 14.5174 2.35166C15.4809 2.75086 16.3045 3.42683 16.8839 4.29418C17.4633 5.16154 17.7726 6.18135 17.7726 7.22451C17.771 8.62285 17.2149 9.9635 16.2263 10.9523C15.2378 11.9411 13.8975 12.4971 12.4995 12.4987Z" fill="black"/>
</svg>
