<svg width="40" height="40" viewBox="0 0 40 40" fill="none" xmlns="http://www.w3.org/2000/svg">
<path id="Union" fill-rule="evenodd" clip-rule="evenodd" d="M10.236 14.0205C9.9682 14.5069 10.1456 15.1466 10.6412 15.4762L13.0765 17.1001C13.0467 15.261 14.087 13.47 15.9146 12.5316C16.2568 12.3565 16.4857 11.9079 16.4857 11.4146V10.625C16.4857 8.68641 18.0627 7.10938 20.0013 7.10938H21.4158C21.798 7.10938 22.1459 6.93086 22.368 6.61953C22.5911 6.30828 22.6484 5.92258 22.5248 5.55984L20.6703 0.0339063C20.5766 0.0308001 20.4837 0.0243551 20.3908 0.01791C20.2617 0.00895507 20.1326 0 20.0012 0C13.6017 0 7.83477 3.12352 4.1875 7.82766L7.93344 8.74477C10.2336 9.31625 11.3888 11.9173 10.236 14.0205ZM33.0051 8.1268C32.8323 8.64289 32.5393 9.11789 32.1559 9.50125L30.8902 10.767C30.6716 10.9855 30.5469 11.2877 30.5469 11.5955V12.9688C30.5469 13.6153 31.0722 14.1406 31.7188 14.1406C33.6573 14.1406 35.2344 15.7177 35.2344 17.6563V19.4473C35.2344 19.9897 35.1062 20.5333 34.8636 21.0185L34.463 21.8196C34.1987 22.3472 34.4104 22.7923 34.5145 22.9595C34.6175 23.1266 34.9208 23.5156 35.5113 23.5156H39.6702C39.8749 22.3722 40 21.2013 40 20C40 14.3809 37.5743 9.30789 33.8198 5.68274L33.0051 8.1268ZM21.4159 9.45332C22.5477 9.45332 23.6166 8.90394 24.2746 7.98387C24.9327 7.06371 25.1077 5.87473 24.7427 4.80473L23.2313 0.286133C26.4427 0.813164 29.3915 2.18371 31.894 4.05512L30.7841 7.38418C30.7257 7.55699 30.6284 7.71605 30.5002 7.84426L29.2345 9.10996C28.5708 9.77371 28.2045 10.6571 28.2045 11.5956V12.9689C28.2045 14.9075 29.7816 16.4845 31.7202 16.4845C32.3667 16.4845 32.892 17.0098 32.892 17.6564V19.4474C32.892 19.6282 32.8497 19.809 32.7684 19.9704L32.3679 20.7714C31.8186 21.8689 31.877 23.1484 32.5213 24.1921C33.1667 25.2358 34.2848 25.8595 35.5127 25.8595H39.1194C36.7713 33.4743 29.8921 39.2202 21.6933 39.9144C22.9112 36.664 24.6537 32.986 26.4627 31.2004C27.5854 30.0915 28.2045 28.6107 28.2045 27.0314V24.6876C28.2045 24.0399 27.6804 23.5157 27.0327 23.5157H24.9659C23.7963 23.5157 22.7445 22.8657 22.2216 21.8197C21.2981 19.975 19.4429 18.8282 17.3807 18.8282H16.0386L15.6824 18.1153C15.0507 16.853 15.6229 15.3161 16.9848 14.6168C18.1052 14.0424 18.8295 12.7858 18.8295 11.4148V10.6252C18.8295 9.97863 19.3549 9.45332 20.0014 9.45332H21.4159ZM18.0634 39.9019C16.9507 37.5741 16.4844 32.7666 16.4844 30.7117C16.4844 30.1624 16.2704 29.6462 15.8824 29.2583L14.484 27.8598C14.0262 27.4021 14.0262 26.6605 14.484 26.2027L15.1821 25.5046C15.8092 24.8775 15.9637 23.923 15.5678 23.1311L14.4034 20.8022L9.33992 17.4262C7.84187 16.4283 7.33148 14.437 8.17945 12.892C8.58969 12.1483 8.18602 11.2234 7.36461 11.0187L2.78453 9.89258C1.02742 12.8602 0 16.3084 0 20C0 30.3315 7.98414 38.9245 18.0634 39.9019ZM25.8609 25.8594V27.0312C25.8609 27.9788 25.4901 28.8669 24.816 29.533C22.692 31.6284 20.9445 35.4327 19.8733 38.1209C19.2267 36.132 18.8296 32.6148 18.8296 30.7117C18.8296 29.5364 18.3719 28.432 17.5409 27.6012L16.9688 27.029C18.2024 25.6877 18.4862 23.7239 17.6657 22.0828L17.2102 21.1719H17.3808C18.5504 21.1719 19.6021 21.8219 20.1251 22.8679C21.0486 24.7127 22.9038 25.8594 24.9659 25.8594H25.8609Z" fill="#222222"/>
</svg>
